<svg version="1.1" xmlns="http://www.w3.org/2000/svg">
    <defs>
        <g id="list">
            <path d="M0 0L6.942 0 6.942 6.942 0 6.942zM9.148 0L31.373 0 31.373 6.942 9.148 6.942zM0 9.008L6.942 9.008 6.942 15.95 0 15.95zM9.148 9.008L31.373 9.008 31.373 15.95 9.148 15.95zM0 18.015L6.942 18.015 6.942 24.958 0 24.958zM9.148 18.015L31.373 18.015 31.373 24.958 9.148 24.958z"/>
        </g>
        <g id="grid">
            <path d="M.394 0h10.192c.217 0 .394.176.394.394v10.192c0 .217-.177.394-.394.394H.394c-.218 0-.394-.177-.394-.394V.394C0 .176.176 0 .394 0zM14.414 0h10.192c.218 0 .394.176.394.394v10.192c0 .217-.176.394-.394.394H14.414c-.217 0-.394-.177-.394-.394V.394c0-.218.177-.394.394-.394zM.394 14.02h10.192c.217 0 .394.177.394.394v10.192c0 .218-.177.394-.394.394H.394C.176 25 0 24.824 0 24.606V14.414c0-.217.176-.394.394-.394zM14.414 14.02h10.192c.218 0 .394.177.394.394v10.192c0 .218-.176.394-.394.394H14.414c-.217 0-.394-.176-.394-.394V14.414c0-.217.177-.394.394-.394z"/>
        </g>
        <g id="catalog">
            <path d="M.596 14.127c-.325 0-.596-.272-.596-.6V7.091c0-.327.27-.6.596-.6h5.579V.6c0-.327.27-.6.596-.6h18.634c.324 0 .595.273.595.6v25.8c0 .327-.27.6-.596.6H.596C.27 27 0 26.727 0 26.4v-6.436c0-.328.27-.6.596-.6h5.579v-5.237H.595zM18.579 1.2H7.421v5.236H18.58V1.2zm6.23 0h-4.984v5.236h4.983V1.2zm0 6.49H13.65v5.237H24.808V7.691zm0 6.437h-4.984v5.237h4.983v-5.237zM13.65 25.855h11.158v-5.237H13.65v5.237zm4.93-6.491v-5.237H7.42v5.237h11.16zM1.245 20.618v5.237h11.158v-5.237H1.245zm5.579-7.69h5.58V7.69H1.244v5.236h5.58z"/>
        </g>
        <g id="approximately">
            <path d="M8.267 4.373c7.347-1.552 13.915-1 15.033-.093-.115.641.26 1.284.897 1.488.134.042.27.063.403.063.558 0 1.077-.357 1.256-.918.263-.822.08-1.666-.507-2.313C23.003.003 13.444.582 7.722 1.79c-3.075.65-4.144.388-4.439.265.01-.032.023-.065.037-.09.35-.628.133-1.422-.49-1.784C2.2-.184 1.391.03 1.025.66c-.424.73-.666 1.934.05 2.923.989 1.366 3.273 1.617 7.191.79zM7.828 10.97c7.345-1.551 13.914-.998 15.032-.093-.115.642.26 1.284.897 1.488.134.043.27.064.403.064.558 0 1.077-.357 1.256-.918.264-.822.08-1.666-.507-2.313C22.564 6.6 13.004 7.18 7.282 8.389c-3.075.65-4.144.388-4.439.265.01-.032.023-.065.037-.09.35-.628.133-1.422-.49-1.784-.63-.366-1.438-.152-1.804.478-.424.73-.666 1.934.05 2.923.988 1.366 3.273 1.617 7.192.79z"/>
        </g>
    </defs>
</svg>
